<?xml version="1.0" encoding="UTF-8"?>
<svg width="11px" height="13px" viewBox="0 0 11 13" version="1.1" xmlns="http://www.w3.org/2000/svg" xmlns:xlink="http://www.w3.org/1999/xlink">
    <!-- Generator: Sketch 43.1 (39012) - http://www.bohemiancoding.com/sketch -->
    <title>Page 1</title>
    <desc>Created with Sketch.</desc>
    <defs></defs>
    <g id="Welcome" stroke="none" stroke-width="1" fill="none" fill-rule="evenodd">
        <g id="order-2-flatplan" transform="translate(-1111.000000, -311.000000)" stroke="#9B9B9B">
            <g id="Page-1" transform="translate(1111.000000, 312.000000)">
                <path d="M0,2.0178 L10.9297692,2.0178" id="Stroke-1"></path>
                <path d="M8.26345385,11.4478286 L2.68391538,11.4478286 C2.23376154,11.4478286 1.8623,11.0912571 1.83860769,10.6361143 L1.37491538,2.01754286 L9.57245385,2.01754286 L9.10876154,10.6361143 C9.08506923,11.0912571 8.71360769,11.4478286 8.26345385,11.4478286 Z" id="Stroke-3"></path>
                <path d="M3.4199,1.27671429 C3.4199,0.807857143 3.79474615,0.428142857 4.25759231,0.428142857 L6.74274615,0.428142857 C7.20559231,0.428142857 7.58043846,0.807857143 7.58043846,1.27671429 L7.58043846,2.01814286 L3.4199,2.01814286 L3.4199,1.27671429 Z" id="Stroke-5"></path>
                <path d="M3.66655385,4.1886 L3.66655385,9.2766" id="Stroke-7"></path>
                <path d="M5.49991538,4.1886 L5.49991538,9.2766" id="Stroke-9"></path>
                <path d="M7.33327692,4.1886 L7.33327692,9.2766" id="Stroke-11"></path>
            </g>
        </g>
    </g>
</svg>