<?xml version="1.0" encoding="UTF-8"?>
<svg width="34px" height="34px" viewBox="0 0 34 34" version="1.1" xmlns="http://www.w3.org/2000/svg" xmlns:xlink="http://www.w3.org/1999/xlink">
    <!-- Generator: Sketch 43.1 (39012) - http://www.bohemiancoding.com/sketch -->
    <title>Page 1</title>
    <desc>Created with Sketch.</desc>
    <defs></defs>
    <g id="Welcome" stroke="none" stroke-width="1" fill="none" fill-rule="evenodd">
        <g id="Page-1">
            <path d="M28.9357083,5.03950459 C35.5553056,11.6591019 35.5553056,22.3908047 28.9357083,29.010402 C22.316111,35.6299992 11.5844082,35.6299992 4.96481095,29.010402 C-1.65478631,22.3908047 -1.65478631,11.6591019 4.96481095,5.03950459 C11.5844082,-1.58009267 22.316111,-1.58009267 28.9357083,5.03950459" id="Fill-1" fill="#ED1C24"></path>
            <path d="M21.9147316,26.013616 L11.7762839,26.013616 C11.1751187,26.013616 10.6801744,25.543532 10.6485341,24.9434968 L10.0292888,16.4435632 L23.6628567,16.4435632 L23.0436113,24.9434968 C23.0119711,25.543532 22.5158968,26.013616 21.9147316,26.013616 Z" id="Stroke-3" stroke="#FFFFFF"></path>
            <path d="M7.7216958,16.4435632 L26.1781455,16.4435632" id="Stroke-5" stroke="#FFFFFF"></path>
            <path d="M13.5792145,18.9512809 L13.5792145,23.5063503" id="Stroke-7" stroke="#FFFFFF"></path>
            <path d="M16.8456207,18.9512809 L16.8456207,23.5063503" id="Stroke-9" stroke="#FFFFFF"></path>
            <path d="M20.111914,18.9512809 L20.111914,23.5063503" id="Stroke-11" stroke="#FFFFFF"></path>
            <path d="M19.307686,8.8894479 L21.8185677,16.7893462" id="Stroke-13" stroke="#FFFFFF"></path>
            <path d="M11.5131046,16.7896852 L14.0239863,8.8897869" id="Stroke-15" stroke="#FFFFFF"></path>
        </g>
    </g>
</svg>