<?xml version="1.0" encoding="UTF-8"?>
<svg width="65px" height="21px" viewBox="0 0 65 21" version="1.1" xmlns="http://www.w3.org/2000/svg" xmlns:xlink="http://www.w3.org/1999/xlink">
    <!-- Generator: Sketch 43.1 (39012) - http://www.bohemiancoding.com/sketch -->
    <title>Group 5 Copy 2</title>
    <desc>Created with Sketch.</desc>
    <defs></defs>
    <g id="Welcome" stroke="none" stroke-width="1" fill="none" fill-rule="evenodd" opacity="0.799999952">
        <g id="main-page-1440px-2nd-visit" transform="translate(-804.000000, -5039.000000)" fill="#9B9B9B">
            <g id="Group-17-Copy-2" transform="translate(252.000000, 4802.000000)">
                <g id="Group-5-Copy-2" transform="translate(552.000000, 237.000000)">
                    <polygon id="Fill-14" points="6.5435 0 0.5505 3.459 0.5505 10.381 6.5435 6.92"></polygon>
                    <polygon id="Fill-16" points="0.5506 10.38 0.5506 17.3 6.5436 13.839 0.5516 10.38"></polygon>
                    <polygon id="Fill-18" points="6.5435 13.8386 6.5435 20.7596 12.5365 17.2996 12.5365 10.3796"></polygon>
                    <polygon id="Fill-20" points="6.5435 6.9206 12.5365 10.3796 12.5365 3.4596"></polygon>
                    <polygon id="Fill-22" points="6.5435 13.8386 12.5365 10.3796 6.5435 6.9206"></polygon>
                    <path d="M29.5497,12.9873 C29.5497,13.4253 29.6167,13.8293 29.7507,14.2003 C29.8837,14.5713 30.0717,14.8873 30.3157,15.1483 C30.5587,15.4103 30.8567,15.6163 31.2087,15.7683 C31.5617,15.9203 31.9567,15.9963 32.3947,15.9963 C32.8317,15.9963 33.2267,15.9203 33.5797,15.7683 C33.9327,15.6163 34.2297,15.4103 34.4737,15.1483 C34.7167,14.8873 34.9047,14.5713 35.0387,14.2003 C35.1727,13.8293 35.2387,13.4253 35.2387,12.9873 C35.2387,12.5493 35.1727,12.1453 35.0387,11.7743 C34.9047,11.4043 34.7167,11.0883 34.4737,10.8263 C34.2297,10.5653 33.9327,10.3583 33.5797,10.2063 C33.2267,10.0543 32.8317,9.9783 32.3947,9.9783 C31.9567,9.9783 31.5617,10.0543 31.2087,10.2063 C30.8567,10.3583 30.5587,10.5653 30.3157,10.8263 C30.0717,11.0883 29.8837,11.4043 29.7507,11.7743 C29.6167,12.1453 29.5497,12.5493 29.5497,12.9873 M27.7987,12.9873 C27.7987,12.3553 27.9177,11.7653 28.1547,11.2183 C28.3917,10.6713 28.7167,10.1913 29.1307,9.7783 C29.5437,9.3643 30.0297,9.0393 30.5887,8.8023 C31.1477,8.5653 31.7497,8.4473 32.3947,8.4473 C33.0387,8.4473 33.6407,8.5653 34.1997,8.8023 C34.7587,9.0393 35.2457,9.3643 35.6587,9.7783 C36.0717,10.1913 36.3967,10.6713 36.6337,11.2183 C36.8717,11.7653 36.9897,12.3553 36.9897,12.9873 C36.9897,13.6193 36.8717,14.2123 36.6337,14.7653 C36.3967,15.3183 36.0717,15.7983 35.6587,16.2063 C35.2457,16.6133 34.7587,16.9353 34.1997,17.1723 C33.6407,17.4093 33.0387,17.5283 32.3947,17.5283 C31.7497,17.5283 31.1477,17.4093 30.5887,17.1723 C30.0297,16.9353 29.5437,16.6133 29.1307,16.2063 C28.7167,15.7983 28.3917,15.3183 28.1547,14.7653 C27.9177,14.2123 27.7987,13.6193 27.7987,12.9873" id="Fill-24"></path>
                    <polygon id="Fill-26" points="48.8859 15.832 53.7919 10.088 49.0499 10.088 49.0499 8.666 55.7969 8.666 55.7969 10.124 50.8559 15.887 56.0529 15.887 56.0529 17.309 48.8859 17.309"></polygon>
                    <polygon id="Fill-28" points="57.7535 15.832 62.6585 10.088 57.9175 10.088 57.9175 8.666 64.6645 8.666 64.6645 10.124 59.7225 15.887 64.9195 15.887 64.9195 17.309 57.7535 17.309"></polygon>
                    <path d="M19.7351,9.4474 C19.7071,9.4754 19.6861,9.4714 19.6861,9.4474 L19.6861,3.4674 L18.0461,3.4674 L18.0461,17.3084 L19.6871,17.3084 L19.6871,12.6994 C19.6871,11.2674 20.2941,10.0854 21.8761,10.0854 C23.4361,10.0854 24.2301,11.2794 24.2301,12.6994 L24.2301,17.3084 L25.8691,17.3084 L25.8691,12.0434 C25.8691,8.2544 21.6031,7.5794 19.7351,9.4474" id="Fill-30"></path>
                    <path d="M44.7897,15.1023 C44.6057,15.3503 44.3607,15.5563 44.0607,15.7143 C43.7647,15.8713 43.3897,15.9503 42.9457,15.9503 C42.5007,15.9503 42.1257,15.8713 41.8297,15.7143 C41.5307,15.5573 41.2857,15.3513 41.1007,15.1023 C40.9137,14.8503 40.7787,14.5713 40.6987,14.2743 C40.6167,13.9703 40.5757,13.6743 40.5757,13.3963 L40.5757,8.6513 L38.9497,8.6513 L38.9497,13.5953 C38.9497,16.4053 40.8887,17.0683 41.3737,17.2523 C41.8577,17.4343 42.3867,17.5263 42.9457,17.5263 C43.5037,17.5263 44.0327,17.4343 44.5177,17.2523 C45.0027,17.0683 46.9407,16.3733 46.9407,13.5953 L46.9407,8.6663 L45.3147,8.6663 L45.3147,13.3963 C45.3147,13.6773 45.2737,13.9723 45.1917,14.2743 C45.1127,14.5703 44.9777,14.8493 44.7897,15.1023" id="Fill-32"></path>
                </g>
            </g>
        </g>
    </g>
</svg>