<?xml version="1.0" encoding="UTF-8"?>
<svg width="21px" height="21px" viewBox="0 0 21 21" version="1.1" xmlns="http://www.w3.org/2000/svg" xmlns:xlink="http://www.w3.org/1999/xlink">
    <!-- Generator: Sketch 43.1 (39012) - http://www.bohemiancoding.com/sketch -->
    <title>Group Copy 2</title>
    <desc>Created with Sketch.</desc>
    <defs>
        <polygon id="path-1" points="20.8631 21 0.1031 21 0.1031 0.2403 20.8631 0.2403"></polygon>
    </defs>
    <g id="Welcome" stroke="none" stroke-width="1" fill="none" fill-rule="evenodd" opacity="0.799999952">
        <g id="main-page-1440px-2nd-visit" transform="translate(-590.000000, -5040.000000)">
            <g id="Group-17-Copy-2" transform="translate(252.000000, 4802.000000)">
                <g id="Group-Copy-2" transform="translate(338.000000, 237.000000)">
                    <g id="Group-42" transform="translate(0.000000, 0.759700)">
                        <mask id="mask-2" fill="white">
                            <use xlink:href="#path-1"></use>
                        </mask>
                        <g id="Clip-41"></g>
                        <path d="M10.4831,0.2403 C7.6641,0.2403 7.3111,0.2523 6.2031,0.3023 C5.0991,0.3533 4.3441,0.5283 3.6841,0.7853 C3.0011,1.0503 2.4221,1.4053 1.8451,1.9823 C1.2681,2.5593 0.9131,3.1383 0.6481,3.8213 C0.3911,4.4813 0.2161,5.2353 0.1661,6.3403 C0.1151,7.4473 0.1031,7.8013 0.1031,10.6203 C0.1031,13.4393 0.1151,13.7923 0.1661,14.8993 C0.2161,16.0043 0.3911,16.7593 0.6481,17.4193 C0.9131,18.1023 1.2681,18.6803 1.8451,19.2583 C2.4221,19.8353 3.0011,20.1893 3.6841,20.4553 C4.3441,20.7113 5.0991,20.8873 6.2031,20.9373 C7.3111,20.9883 7.6641,21.0003 10.4831,21.0003 C13.3021,21.0003 13.6551,20.9883 14.7631,20.9373 C15.8671,20.8873 16.6221,20.7113 17.2821,20.4553 C17.9651,20.1893 18.5441,19.8353 19.1211,19.2583 C19.6981,18.6803 20.0531,18.1023 20.3181,17.4193 C20.5751,16.7593 20.7501,16.0043 20.8001,14.8993 C20.8511,13.7923 20.8631,13.4393 20.8631,10.6203 C20.8631,7.8013 20.8511,7.4473 20.8001,6.3403 C20.7501,5.2353 20.5751,4.4813 20.3181,3.8213 C20.0531,3.1383 19.6981,2.5593 19.1211,1.9823 C18.5441,1.4053 17.9651,1.0503 17.2821,0.7853 C16.6221,0.5283 15.8671,0.3533 14.7631,0.3023 C13.6551,0.2523 13.3021,0.2403 10.4831,0.2403 M10.4831,2.1103 C13.2551,2.1103 13.5831,2.1213 14.6771,2.1713 C15.6891,2.2173 16.2391,2.3863 16.6051,2.5283 C17.0891,2.7163 17.4351,2.9413 17.7981,3.3053 C18.1611,3.6683 18.3861,4.0143 18.5751,4.4983 C18.7171,4.8643 18.8861,5.4133 18.9321,6.4253 C18.9821,7.5203 18.9931,7.8483 18.9931,10.6203 C18.9931,13.3913 18.9821,13.7203 18.9321,14.8143 C18.8861,15.8263 18.7171,16.3763 18.5751,16.7423 C18.3861,17.2263 18.1611,17.5723 17.7981,17.9353 C17.4351,18.2983 17.0891,18.5233 16.6051,18.7123 C16.2391,18.8543 15.6891,19.0233 14.6771,19.0693 C13.5831,19.1193 13.2551,19.1293 10.4831,19.1293 C7.7111,19.1293 7.3831,19.1193 6.2891,19.0693 C5.2771,19.0233 4.7271,18.8543 4.3611,18.7123 C3.8771,18.5233 3.5311,18.2983 3.1681,17.9353 C2.8051,17.5723 2.5801,17.2263 2.3911,16.7423 C2.2491,16.3763 2.0801,15.8263 2.0341,14.8143 C1.9841,13.7203 1.9731,13.3913 1.9731,10.6203 C1.9731,7.8483 1.9841,7.5203 2.0341,6.4263 C2.0801,5.4133 2.2491,4.8643 2.3911,4.4983 C2.5801,4.0143 2.8051,3.6683 3.1681,3.3053 C3.5311,2.9413 3.8771,2.7163 4.3611,2.5283 C4.7271,2.3863 5.2771,2.2173 6.2891,2.1713 C7.3831,2.1213 7.7111,2.1103 10.4831,2.1103" id="Fill-40" fill="#9B9B9B" mask="url(#mask-2)"></path>
                    </g>
                    <path d="M10.4831,14.8398 C8.5721,14.8398 7.0231,13.2908 7.0231,11.3798 C7.0231,9.4688 8.5721,7.9198 10.4831,7.9198 C12.3941,7.9198 13.9431,9.4688 13.9431,11.3798 C13.9431,13.2908 12.3941,14.8398 10.4831,14.8398 M10.4831,6.0498 C7.5391,6.0498 5.1531,8.4358 5.1531,11.3798 C5.1531,14.3238 7.5391,16.7098 10.4831,16.7098 C13.4271,16.7098 15.8131,14.3238 15.8131,11.3798 C15.8131,8.4358 13.4271,6.0498 10.4831,6.0498" id="Fill-43" fill="#9B9B9B"></path>
                    <path d="M17.2694,5.8391 C17.2694,6.5271 16.7114,7.0851 16.0234,7.0851 C15.3364,7.0851 14.7784,6.5271 14.7784,5.8391 C14.7784,5.1511 15.3364,4.5931 16.0234,4.5931 C16.7114,4.5931 17.2694,5.1511 17.2694,5.8391" id="Fill-45" fill="#9B9B9B"></path>
                </g>
            </g>
        </g>
    </g>
</svg>