<?xml version="1.0" encoding="UTF-8" standalone="no"?>
<!-- Creator: CorelDRAW X6 -->

<svg
   xmlns:dc="http://purl.org/dc/elements/1.1/"
   xmlns:cc="http://creativecommons.org/ns#"
   xmlns:rdf="http://www.w3.org/1999/02/22-rdf-syntax-ns#"
   xmlns:svg="http://www.w3.org/2000/svg"
   xmlns="http://www.w3.org/2000/svg"
   xmlns:sodipodi="http://sodipodi.sourceforge.net/DTD/sodipodi-0.dtd"
   xmlns:inkscape="http://www.inkscape.org/namespaces/inkscape"
   xml:space="preserve"
   width="500"
   height="500"
   version="1.1"
   style="clip-rule:evenodd;fill-rule:evenodd;image-rendering:optimizeQuality;shape-rendering:geometricPrecision;text-rendering:geometricPrecision"
   viewBox="0 0 500 499.85745"
   id="svg13"
   sodipodi:docname="logo.svg"
   inkscape:version="0.92.0 r15299"><metadata
     id="metadata17"><rdf:RDF><cc:Work
         rdf:about=""><dc:format>image/svg+xml</dc:format><dc:type
           rdf:resource="http://purl.org/dc/dcmitype/StillImage" /><dc:title></dc:title></cc:Work></rdf:RDF></metadata><sodipodi:namedview
     pagecolor="#ffffff"
     bordercolor="#666666"
     borderopacity="1"
     objecttolerance="10"
     gridtolerance="10"
     guidetolerance="10"
     inkscape:pageopacity="0"
     inkscape:pageshadow="2"
     inkscape:window-width="1858"
     inkscape:window-height="1058"
     id="namedview15"
     showgrid="false"
     fit-margin-top="0"
     fit-margin-left="0"
     fit-margin-right="0"
     fit-margin-bottom="0"
     inkscape:zoom="0.19028187"
     inkscape:cx="2468.7664"
     inkscape:cy="424.46981"
     inkscape:window-x="54"
     inkscape:window-y="-8"
     inkscape:window-maximized="1"
     inkscape:current-layer="svg13" /><defs
     id="defs4"><style
       type="text/css"
       id="style2"><![CDATA[
    .fil0 {fill:red}
   ]]></style></defs><g
     id="Слой_x0020_1"
     transform="matrix(0.31989763,0,0,0.31989763,-146.83301,-311.1633)"><metadata
       id="CorelCorpID_0Corel-Layer" /><g
       id="Welcome"><g
         id="main-page"><g
           id="logo"><g
             id="Clip-2" /><path
             id="Fill-1"
             class="fil0"
             d="m 2021,1448 v -57 h -299 v 57 h 120 v 246 h 63 v -246 h 117 z m -486,661 h 62 l -116,-302 h -90 l -119,302 h 62 l 43,-101 h 116 z m -56,-154 h -85 l 31,-88 h 22 l 31,88 z m 56,-680 h 62 L 1481,973 h -90 l -119,302 h 62 l 43,-101 h 116 z m -56,-154 h -85 l 31,-88 h 22 l 31,88 z M 906,2535 h 249 v -63 H 972 v -239 h -66 z m 0,-841 h 249 v -63 H 972 v -239 h -66 z m -195,222 c 0,-60 -44,-93 -113,-93 H 459 v 302 h 63 v -117 h 76 c 69,0 113,-33 113,-94 v 0 z m -55,2 c 0,27 -18,38 -58,38 h -67 v -76 h 67 c 39,0 58,11 58,38 z M 522,1029 H 702 V 972 H 459 v 302 h 63 v -123 h 142 v -57 H 522 v -66 z m 1289,1203 h -70 v 302 h 57 v -217 h 8 l 144,217 h 71 v -302 h -57 v 220 h -8 z"
             inkscape:connector-curvature="0"
             style="fill:#ff0000" /></g></g></g></g></svg>
