<?xml version="1.0" encoding="UTF-8"?>
<svg width="34px" height="34px" viewBox="0 0 34 34" version="1.1" xmlns="http://www.w3.org/2000/svg" xmlns:xlink="http://www.w3.org/1999/xlink">
    <!-- Generator: Sketch 43.1 (39012) - http://www.bohemiancoding.com/sketch -->
    <title>Page 1</title>
    <desc>Created with Sketch.</desc>
    <defs></defs>
    <g id="Welcome" stroke="none" stroke-width="1" fill="none" fill-rule="evenodd">
        <g id="main-page-1440px-2nd-visit" transform="translate(-227.000000, -10.000000)">
            <g id="Group-18" transform="translate(227.000000, 5.000000)">
                <g id="Group-17">
                    <g id="Page-1" transform="translate(0.000000, 5.000000)">
                        <g id="Group-3" fill="#A87F53">
                            <path d="M29.0208133,4.97918667 C35.65988,11.6182533 35.65988,22.38152 29.0208133,29.0205867 C22.3817467,35.6596533 11.61848,35.6596533 4.97941333,29.0205867 C-1.65965333,22.38152 -1.65965333,11.6182533 4.97941333,4.97918667 C11.61848,-1.65988 22.3817467,-1.65988 29.0208133,4.97918667" id="Fill-1"></path>
                        </g>
                        <path d="M17.26928,17.1153733 C17.26928,9.50277333 22.00548,6.42237333 26.0741467,6.42237333 C26.0900133,7.84697333 26.0741467,12.0527733 26.0741467,12.0527733 L21.7244133,12.4743733 L21.7244133,17.1153733 L21.7244133,21.7563733 L26.0741467,22.1779733 C26.0741467,22.1779733 26.0900133,26.3837733 26.0741467,27.8083733 C22.00548,27.8083733 17.26928,24.7279733 17.26928,17.1153733 Z" id="Stroke-4" stroke="#FFFFFF" stroke-linejoin="bevel"></path>
                        <path d="M2.24128,16.87386 L13.96448,16.87386" id="Stroke-6" stroke="#FFFFFF" stroke-linejoin="bevel"></path>
                        <polyline id="Stroke-8" stroke="#FFFFFF" stroke-linejoin="bevel" points="8.10979333 22.8057267 14.0405267 16.8749933 8.10979333 10.9431267"></polyline>
                    </g>
                </g>
            </g>
        </g>
    </g>
</svg>