<?xml version="1.0" encoding="UTF-8"?>
<svg width="21px" height="21px" viewBox="0 0 21 21" version="1.1" xmlns="http://www.w3.org/2000/svg" xmlns:xlink="http://www.w3.org/1999/xlink">
    <!-- Generator: Sketch 43.1 (39012) - http://www.bohemiancoding.com/sketch -->
    <title>Group 3 Copy 2</title>
    <desc>Created with Sketch.</desc>
    <defs></defs>
    <g id="Welcome" stroke="none" stroke-width="1" fill="none" fill-rule="evenodd" opacity="0.799999952">
        <g id="main-page-1440px-2nd-visit" transform="translate(-410.000000, -5040.000000)" fill="#9B9B9B">
            <g id="Group-17-Copy-2" transform="translate(252.000000, 4802.000000)">
                <g id="Group-3-Copy-2" transform="translate(158.000000, 237.000000)">
                    <g id="Group-39" transform="translate(0.000000, 0.759700)">
                        <path d="M17.0424,14.8559 L15.2964,14.8559 C14.7254,14.8559 14.6544,14.4399 13.6094,13.4419 C12.7274,12.5729 12.3504,12.5039 12.1364,12.5039 C11.9464,12.5039 11.8154,12.6459 11.8154,12.9789 L11.8154,14.3099 C11.8154,14.7019 11.5894,14.8559 10.6634,14.8559 C9.1424,14.8559 7.4554,13.9179 6.1724,12.1829 C4.2604,9.6049 3.7734,7.6809 3.7734,7.2649 C3.7734,7.0389 3.9394,6.8849 4.1654,6.8849 L5.7214,6.8849 C6.1254,6.8849 6.2794,7.0039 6.4224,7.4309 C7.1344,9.5219 8.4064,11.3629 8.9404,11.3629 C9.1424,11.3629 9.1664,11.1969 9.1664,10.7689 L9.1664,8.6429 C9.1664,7.6119 8.5844,7.5269 8.5844,7.1459 C8.5844,6.9949 8.7034,6.8849 8.8934,6.8849 L11.3874,6.8849 C11.7204,6.8849 11.7674,7.0039 11.7674,7.4079 L11.7674,10.2939 C11.7674,10.6239 11.8354,10.7459 11.9814,10.7459 C12.1634,10.7459 12.3304,10.6359 12.6584,10.2709 C13.6824,9.1409 14.5244,7.3479 14.5244,7.3479 C14.6304,7.1219 14.7614,6.9679 15.1184,6.9679 L16.6744,6.9679 C16.9834,6.9679 17.1134,7.1339 17.0544,7.4309 C16.8764,8.2629 15.0824,10.7929 15.0824,10.7929 C14.9164,11.0549 14.8444,11.1969 15.0824,11.4469 C15.2484,11.6599 15.7714,12.1239 16.0924,12.5509 C16.8764,13.3829 17.3874,14.0839 17.3874,14.4759 C17.3874,14.7729 17.2204,14.8559 17.0424,14.8559 M17.5604,0.2399 L3.1984,0.2399 C1.4324,0.2399 0.000400000001,1.6729 0.000400000001,3.4389 L0.000400000001,17.8009 C0.000400000001,19.5679 1.4324,20.9999 3.1984,20.9999 L17.5604,20.9999 C19.3274,20.9999 20.7594,19.5679 20.7594,17.8009 L20.7594,3.4389 C20.7594,1.6729 19.3274,0.2399 17.5604,0.2399" id="Fill-37"></path>
                    </g>
                </g>
            </g>
        </g>
    </g>
</svg>